<svg xmlns="http://www.w3.org/2000/svg" viewBox="0 0 531.25 315.34"><defs><style>.cls-1{fill:#ededed;}.cls-2{fill:#706f6f;}.cls-3{fill:#e83b3b;}.cls-4{fill:#333;}</style></defs><g id="Layer_2" data-name="Layer 2"><g id="Layer_1-2" data-name="Layer 1"><polygon class="cls-1" points="7.77 170.03 149.14 29.16 156.2 70.61 115.7 151.65 7.77 170.03"/><polygon class="cls-1" points="500.4 86.12 320.37 0 327.43 41.45 392.48 104.51 500.4 86.12"/><path class="cls-1" d="M494.38,87.15,290.21,121.92l-14.66,2.5-41.3,7-6.76,1.15L15.42,168.73A18.52,18.52,0,0,0,.27,190.1L15.1,277.22A45.82,45.82,0,0,0,68,314.69l146.77-25a45.81,45.81,0,0,0,37.47-52.85l-9.37-55,41.3-7,9.37,55a45.81,45.81,0,0,0,52.85,37.47l146.77-25a45.81,45.81,0,0,0,37.47-52.85L515.75,102.3A18.53,18.53,0,0,0,494.38,87.15Z"/><path class="cls-2" d="M83.2,137.7h88.06a2.58,2.58,0,0,1,2.58,2.58V313.56a2.58,2.58,0,0,1-2.58,2.58H83.2a0,0,0,0,1,0,0V137.7a0,0,0,0,1,0,0Z" transform="translate(330.64 62.12) rotate(80.33)"/><path class="cls-2" d="M361.59,90.28h88.06a2.58,2.58,0,0,1,2.58,2.58V266.14a2.58,2.58,0,0,1-2.58,2.58H361.59a0,0,0,0,1,0,0V90.28A0,0,0,0,1,361.59,90.28Z" transform="translate(515.54 -251.78) rotate(80.33)"/><circle class="cls-3" cx="406.38" cy="179.74" r="35.24"/><circle class="cls-3" cx="122.62" cy="226.68" r="35.24"/><circle class="cls-4" cx="406.38" cy="179.74" r="10.03"/><circle class="cls-4" cx="122.8" cy="226.32" r="10.03"/></g></g></svg>